<svg xmlns="http://www.w3.org/2000/svg" viewBox="0 0 1055.23 91.31"><g id="Layer_2" data-name="Layer 2"><g id="Layer_1-2" data-name="Layer 1"><path d="M35.52,80.86H0V6.19H34.67c15.25,0,24.64,7.57,24.64,19.31v.21c0,8.43-4.48,13.12-9.81,16.11,8.64,3.3,14,8.32,14,18.34v.22C63.47,74,52.38,80.86,35.52,80.86ZM43,28.27c0-4.91-3.84-7.68-10.77-7.68H16V36.38H31.15C38.4,36.38,43,34,43,28.48Zm4.16,29.87c0-5-3.73-8.11-12.16-8.11H16V66.46H35.52c7.26,0,11.63-2.56,11.63-8.11Z"/><path d="M114.35,80.75V91.31H103.26V80.54A53.5,53.5,0,0,1,78.09,70.4l8.32-12.16c5.76,4.38,11.09,7.36,17.38,8.64v-17C88.43,45.76,80.86,39.79,80.86,27.2c0-11.84,9-19.63,22.4-21V0h11.09V6.4a44.82,44.82,0,0,1,19.85,7.89l-7.15,12.48a44.28,44.28,0,0,0-13.23-6.29V36.59C130,41,137,47.68,137,59.63S127.9,79.26,114.35,80.75ZM103.79,19.52c-5.12.75-7.36,3.31-7.36,6.72s1.5,5.55,7.36,7.68Zm10,33V67.42c5-.75,7.58-3.1,7.58-6.94C121.4,56.86,119.58,54.62,113.82,52.48Z"/><path d="M304.13,80.86H268.6V6.19h34.67c15.26,0,24.65,7.57,24.65,19.31v.21c0,8.43-4.48,13.12-9.82,16.11,8.64,3.3,14,8.32,14,18.34v.22C332.08,74,321,80.86,304.13,80.86Zm7.46-52.59c0-4.91-3.84-7.68-10.77-7.68H284.61V36.38h15.14c7.26,0,11.84-2.35,11.84-7.9Zm4.16,29.87c0-5-3.73-8.11-12.16-8.11h-19V66.46h19.52c7.25,0,11.62-2.56,11.62-8.11Z"/><path d="M351,80.86V6.19h56.32V20.8h-40V36h35.2V50.56h-35.2V66.24h40.53V80.86Z"/><path d="M473.1,80.86,457.1,57H444.19v23.9H427.76V6.19H461.9c17.6,0,28.16,9.28,28.16,24.64V31c0,12.06-6.51,19.63-16,23.15L492.3,80.86Zm.32-49.18c0-7-4.91-10.67-12.91-10.67H444.19V42.46h16.64c8,0,12.59-4.27,12.59-10.56Z"/><path d="M558.44,80.86,535.29,49.07l-8.64,9V80.86H510.22V6.19h16.43V38.83L557,6.19h19.84l-30.4,31.68,31.79,43Z"/><path d="M618.93,81.93a47.54,47.54,0,0,1-31.69-12L597,58.35c6.72,5.55,13.76,9.07,22.3,9.07,6.72,0,10.77-2.67,10.77-7v-.22c0-4.16-2.56-6.29-15-9.49-15-3.84-24.75-8-24.75-22.83v-.21c0-13.55,10.88-22.51,26.14-22.51a43.2,43.2,0,0,1,27.73,9.49L635.57,27c-6.62-4.59-13.12-7.36-19.42-7.36s-9.6,2.88-9.6,6.51v.21c0,4.91,3.2,6.51,16.11,9.81,15.15,4,23.68,9.39,23.68,22.4v.22C646.34,73.6,635,81.93,618.93,81.93Z"/><path d="M712.69,80.86v-30H682.4v30H666V6.19H682.4V35.74h30.29V6.19h16.43V80.86Z"/><path d="M808,80.86l-6.83-16.75H769.55l-6.82,16.75H746L778,5.65h15.15l32,75.21ZM785.34,25.39,775.42,49.6h19.84Z"/><path d="M887.32,80.86l-16-23.9H858.41v23.9H842V6.19h34.13c17.6,0,28.16,9.28,28.16,24.64V31c0,12.06-6.5,19.63-16,23.15l18.24,26.67Zm.32-49.18c0-7-4.91-10.67-12.91-10.67H858.41V42.46h16.64c8,0,12.59-4.27,12.59-10.56Z"/><path d="M924.44,80.86V6.19h56.33V20.8h-40V36H976V50.56h-35.2V66.24H981.3V80.86Z"/><path d="M1027.81,81.93a47.53,47.53,0,0,1-31.68-12l9.71-11.63c6.72,5.55,13.76,9.07,22.29,9.07,6.72,0,10.78-2.67,10.78-7v-.22c0-4.16-2.56-6.29-15-9.49-15-3.84-24.75-8-24.75-22.83v-.21c0-13.55,10.88-22.51,26.13-22.51A43.23,43.23,0,0,1,1053,14.61L1044.46,27c-6.62-4.59-13.13-7.36-19.42-7.36s-9.6,2.88-9.6,6.51v.21c0,4.91,3.2,6.51,16.11,9.81,15.15,4,23.68,9.39,23.68,22.4v.22C1055.23,73.6,1043.92,81.93,1027.81,81.93Z"/></g></g></svg>