<svg xmlns="http://www.w3.org/2000/svg" viewBox="0 0 258.96 256"><defs><style>.cls-1{fill:none;}.cls-2{fill:#bf7c32;}</style></defs><g id="Layer_2" data-name="Layer 2"><g id="Layer_1-2" data-name="Layer 1"><path class="cls-1" d="M137.12,201.07c-4-2.08-7.88-4.49-12.11-5.89a27.6,27.6,0,0,0-11.58-1.58c-3.84.46-7.9.83-11.18,4.37-3,3.2-7.41,5-11.19,7.46A10.65,10.65,0,0,0,89,207a14.8,14.8,0,0,1-4.26,3.11l3.8.68c4.11.69,8.24,1.21,12.37,1.78a13.76,13.76,0,0,0,2.57.08c4.49-.23,9-.22,13.47-.81,5.23-.68,10.56-.68,15.59-2.85,3.57-1.54,7.52-2.19,11.15-3.61-.44-.37-.87-.73-1.32-1.07A38.37,38.37,0,0,0,137.12,201.07Z"/><path class="cls-1" d="M53.86,201.72c-2.63-2-15.59-11.7-18.22-13.7-.23.29,11.06,9.13,10.83,9.42,2.71,1.91,9.76,6.39,12.47,8.3C59.09,205.53,53.72,201.93,53.86,201.72Z"/><path class="cls-1" d="M121.17,24.73H107.33c0,.4-14.47,1.73-14.48,2.13l19.82-1.24C112.66,25.33,121.18,25,121.17,24.73Z"/><path class="cls-1" d="M201.44,204.22l-.73-.74-5.23,5.88.43.42Z"/><path class="cls-1" d="M42.49,206.72c-2-1.88-4.2-3.62-6-5.68-3-3.4-5.69-7.06-8.63-10.52-2.49-2.92-5.42-5.49-6.78-9.25-.37-1-1-2-1.43-3-1.08-2.38-2.55-4.68-3.09-7.18a32.07,32.07,0,0,0-4.39-10.84A20.55,20.55,0,0,1,10,155.12c-.64-2.06-1-4.21-1.53-6.32-.08,5.76.49,11.32,2.74,16.69a73.46,73.46,0,0,0,8,15c1.1,1.53,2.73,3.25,2.73,4.87,0,2.47,1.29,4,2.37,5.75,2.85,4.69,7.16,8,11.17,11.51,2,1.76,10.32,7,12.39,8.71C48.18,211,42.23,207,42.49,206.72Z"/><path d="M258.91,237.27c-1.31-.19-2.71-.38-4.1-.62-3.48-.57-7.35-.08-10.27-2.26s-5.7-1.56-8.66-1.69a12,12,0,0,1-2.62-.15c-5.65-1.49-11.3-3-16.93-4.59q-8.06-2.31-16.05-4.84c-1-.32-2-.71-2.92-1.12s-1.81-.79-2.72-1.16c-2.4-1-5-1.65-7.16-3-8.57-5.4-17-11-25.49-16.54-1.49-1-3-1.95-4.45-2.93-2.86-1.89-5.72-3.76-8.69-5.47C142,189,135.69,184,128,181.51a2.64,2.64,0,0,1-1.09-2.39,15.65,15.65,0,0,1,3.11-4.74c4.26-4.14,8.82-8,13-12.15,3.25-3.24,6.16-6.84,9.2-10.29,2.24-2.55,1.38-5.18-2-6.09a8.17,8.17,0,0,1-2.22-.74c-2.79-1.72-5.54-3.51-8.28-5.31-2-1.29-4.75-1.5-5.63-4.26a23.76,23.76,0,0,0-1-2.59c-.42-.89-.72-2-1.45-2.55-1.89-1.38-4-2.47-6.61-4,.16,2,0,3.8.49,5.39.77,2.41,2.14,4.62,3,7,1.11,3,.15,5.5-2.2,7.81a6.12,6.12,0,0,0-1.62,3.49c-.18,1.58-.49,2.74-2.07,3.41-.59.25-1,.95-1.52,1.39-1,.82-2.06,1.63-3.13,2.39-.38.26-1.19.33-1.23.57-.41,2.57-2.7,3.37-4.28,4.87-3.54,3.37-7.07,6.77-10.37,10.38-2.88,3.14-7.84,4.78-7.29,10.71-1.94-2.26-2.9-.25-3.73-.18v2.56a18.23,18.23,0,0,0-2.33-.09c-.88.06-2,0-2.58.45-4,3.35-7.92,6.81-11.8,10.29-3,2.7-6,5.41-8.93,8.2A11.35,11.35,0,0,0,71,206.44c1.1,0,2.16,1.39,3.34,1.65,3.42.74,6.87,1.39,10.32,2A14.8,14.8,0,0,0,89,207a10.65,10.65,0,0,1,2.1-1.57c3.78-2.44,8.23-4.26,11.19-7.46,3.28-3.54,7.34-3.91,11.18-4.37A27.6,27.6,0,0,1,125,195.18c4.23,1.4,8.13,3.81,12.11,5.89a38.37,38.37,0,0,1,5.21,3.24c.45.34.88.7,1.32,1.07,2.16,1.84,4.17,4,6.65,5.08,4.51,2,7.88,5.19,11.23,8.55.66.67,1.17,1.5,1.88,2.11,5.07,4.3,10.3,8.42,15.24,12.88l1.07,1c4.49,4.11,8.82,8.4,13.09,12.75,3.92,4,8,7.4,14.06,7,1-.06,2,.78,3.12,1a6.06,6.06,0,0,0,2.43.14c6.33-1.14,12-5.85,18.92-3.8.14,0,.32,0,.47-.07,4-.42,7.64-1.51,10.25-4.81,1.84-2.34,4.39-2.9,7.17-3.2a4.73,4.73,0,0,0,2.63-1.53c2-2.14,3.29-5.18,6.92-5.11C258.9,237.41,259,237.12,258.91,237.27Z"/><path class="cls-2" d="M163.41,221.12c-.71-.61-1.22-1.44-1.88-2.11-3.35-3.36-6.72-6.53-11.23-8.55-2.48-1.11-4.49-3.24-6.65-5.08-3.63,1.42-7.58,2.07-11.15,3.61-5,2.17-10.36,2.17-15.59,2.85-4.45.59-9,.58-13.47.81a13.76,13.76,0,0,1-2.57-.08c-4.13-.57-8.26-1.09-12.37-1.78l-3.8-.68c-3.45-.63-6.9-1.28-10.32-2-1.18-.26-2.24-1.66-3.34-1.65A11.35,11.35,0,0,1,65.59,205a57,57,0,0,0-6.35-3.29A17.84,17.84,0,0,1,54,198.54a126.73,126.73,0,0,1-12.45-12.19c-4.1-4.49-6.91-9.62-9.81-14.74-1.6-2.84-2.35-6.16-3.41-9.29a72.74,72.74,0,0,1-2.87-9.22c-.65-3.39-.6-6.92-1-10.37a48,48,0,0,1,1.46-19,44.61,44.61,0,0,0,1.16-4.86,5,5,0,0,0-.39-1.8h-.75c-4.63,7.56-5.62,16.1-6.12,24.81a95,95,0,0,1-.31-12.14c.07-1.81.92-3.59,1-5.4a22.49,22.49,0,0,0-.71-4.62l-3,.66a2.44,2.44,0,0,1-.69.15c-1.69-.14-2.12.88-2.4,2.31a39.13,39.13,0,0,1-1.43,4.44c-1.13-2.4,1.07-5.14-2.2-6.1-.43,1.27-.88,2.57-1.33,3.88l-.65-.17c.47-3.47.74-7,1.47-10.42.65-3.05,1.8-6,2.73-9,0,0,.11.12.16.12a.28.28,0,0,0,.19-.13c.36-.87.71-1.75,1.08-2.62,1.88-4.45,3.52-9,5.75-13.28,1.25-2.39,3.53-4.24,5.26-6.39,4.54-5.67,9-11.37,13.56-17,.19-.23.49-.65.65-.61,2.72.68,3.32-2,4.84-3.1,1.11-.84,2.08-1.89,3.11-2.84l.48.54c-3,3-5.92,6-9,8.9-1.06,1-2.64,1.57-3.52,2.7-3.57,4.6-7,9.33-10.32,13.86,1.26,2.43,2.37,2.2,3.63.65.74-.91,1.58-1.75,2.37-2.62.37,2.19-3,3-1.44,5.3,2.08-1.79,4.11-3.53,6.14-5.29.17-.15.39-.43.35-.6-.73-3.41,2.39-4.9,4-6.52,4.2-4.15,9.16-7.54,13.78-11.27.52-.43,1.28-1.33,1.14-1.67-1.28-3.07,1.43-3,2.9-3.92A34.14,34.14,0,0,0,60.77,57c1.54-1.31,2.89-3,4.63-3.91a44.12,44.12,0,0,1,6.82-2.52c1.62-.55,2.79-2.28,5-1.54.83.28,2-.54,3.14-.89L79,47.37l3.82-1.75c.1,1.34.17,2.31.27,3.55a4.25,4.25,0,0,0,5.14-.08,5,5,0,0,1,2.29-.33c3.56-.31,7.12-.59,10.68-.88,0-.21,0-.42,0-.63l-3.42-1.06a64.19,64.19,0,0,1,13.31-.81,46.66,46.66,0,0,1,22.36,7.3c.79.52,2.37.25,3.39-.14.38-.15.2-1.72.3-3,2.28,1.48,4.6,3,6.89,4.5,1.65,1.11,3.22,2.33,4.88,3.42a1.74,1.74,0,0,0,1.48.25,1.67,1.67,0,0,0,.37-1.45,3.62,3.62,0,0,0-.9-2.11c-2.65-1.95-5.34-3.86-8.15-5.55s-5.9-3.22-8.86-4.81c0-.23.07-.46.11-.69h1.89c.66,0,1.32-.06,2-.09a6.66,6.66,0,0,0-1.31-1.59c-2.44-1.55-4.73-3.43-7.74-3.84-.2,0-.37-.29-.86-.7.82,0,1.2,0,1.58,0A44.92,44.92,0,0,1,142,40.11c1.12.42,2,1.61,2.93,2.46.4.34.69.91,1.14,1.08,1.48.55,3,1,4.51,1.43,6.25,1.76,10.55,5.82,13.59,11.42A22,22,0,0,0,166,59.2c2,2.61,4,5.2,6.4,8.27L170,67a5.48,5.48,0,0,0,.16,1.84c1.32,2.66,2.68,5.31,4.12,7.91a5.18,5.18,0,0,1,.85,4.24c-.21.76.56,1.84,1,2.73.3.62,1.1,1.13,1.13,1.71.17,3.58,2,6,4.46,8.53,4.61,4.8,10.54,7,16.39,9.21,4.29,1.64,8.22-.43,11.47-3.41s6.71-6,8.71-10.19a14.38,14.38,0,0,0,1-3.75c.6-3.62-1.37-6.9-.32-11,1.63-6.32-.39-12.9-4.67-18.07-8.73-10.55-19.12-19.38-30-27.59-4.66-3.52-9.56-6.74-14.18-10.32-5.13-4-11-6.53-16.71-9.38-8.57-4.25-17.91-5.72-26.95-8.27-1.94-.55-4.42-1.1-6.06-.36-2.18,1-3.77.46-5.63-.19A7.34,7.34,0,0,0,112,0c-5.12.48-10.23,1.1-15.34,1.65-1.36.15-2.72.23-4.08.34,0,.23,0,.46,0,.69a10,10,0,0,0,2.18.42c3.55-.14,7.11-.26,10.65-.56a47.16,47.16,0,0,1,22.31,3,7.55,7.55,0,0,1-1.8.28c-3.7-.42-7.4-1-11.11-1.35a74.65,74.65,0,0,0-10.42-.76A89.52,89.52,0,0,0,81.89,7.23c-4.54,1.35-9.18,2.41-13.63,4a96.52,96.52,0,0,0-9.61,4.53,5.75,5.75,0,0,0-1.36.93c-2,1.84-3.71,4.25-7,3.45-.3-.07-.71.26-1,.45-1.77,1-3.49,2.18-5.32,3.09-1.43.72-2,1.58-1.18,3.09l-4.46,2.56-.41-.61c.79-.65,1.57-1.31,2.35-2l-.31-.44-3.37,1.83c1.56,2.65,1.52,2.5,3.9,1.76a13,13,0,0,1,3.74-.06c-.1,1.51-3,1.91-.9,3.17-.39,1.2-.75,2.29-1.1,3.38l.66.31c8.36-4.43,16.31-9.8,25.82-11.74a77.79,77.79,0,0,1-8.48,5c-2.17,1.15-4.42,2.17-6.47,3.5-.56.36-.56,1.6-.81,2.44A12.17,12.17,0,0,0,55,36c1-.13,2.05-.43,3.29-.71-1.92,1.5-3.63,2.68-5.15,4.07-1.32,1.19-2.39,2.65-3.64,3.93a23.16,23.16,0,0,1-2,1.62l.38.7,13-4.79.3.54c-1.27.77-2.52,1.58-3.82,2.29a40.15,40.15,0,0,0-4.47,2.32c-3.84,2.78-7.34,6.1-11.39,8.51A38.28,38.28,0,0,0,29.88,65.36a40.53,40.53,0,0,1-4.17,4.24V67.45L25,67.16c-.65,1.25-1.33,2.49-2,3.75a21.78,21.78,0,0,1-.9,2.16c-1.95,3.09-4.08,6.06-5.91,9.22a52.94,52.94,0,0,0-5.72,15.27c-1.48,6.68-2.81,13.4-4.55,20-.87,3.28-1.8,6.62-3.89,9.48a8.73,8.73,0,0,0-1.83,4.16,52,52,0,0,0,0,11.09A127.3,127.3,0,0,0,4,159.49,89.48,89.48,0,0,0,9.76,174a156.27,156.27,0,0,0,10.35,18.33,136,136,0,0,0,14.37,17A86.56,86.56,0,0,0,49,221.52l1.2.8c.86.55,1.7,1.13,2.53,1.72,2.15,1.5,4.24,3.08,6.36,4.6a69.35,69.35,0,0,1-9.56-3.45l-.6-.26-2.19-1.1C43,222,39.42,219.94,35.78,218c-.4-.21-.65-.67-1-1l-8.27-7a1,1,0,0,0-.4-.24c-.36-.06-.94-.23-1-.09-.23.34-.46,1-.29,1.24,1.08,1.8,2,3.79,3.5,5.2s3.26,2.22,2.59,4.76a4.72,4.72,0,0,0,.27,3.06,25.18,25.18,0,0,0,3.43,5.45c.86,1,2.48,1.25,3.66,2,3.13,2,6,4.44,9.35,6.12,5.11,2.59,10.42,4.83,15.76,6.94a97.21,97.21,0,0,0,14.14,4.78,188.11,188.11,0,0,0,19.65,3.11,124.07,124.07,0,0,0,13,.37c2.35,0,4.69-.16,7-.25,4.24-.16,8.53,0,12.7-.59,5.39-.77,10.72-2.06,16-3.34a63.67,63.67,0,0,0,8.23-2.77c4.77-1.88,9.46-3.94,14.2-5.87,2.78-1.13,5.78-1.85,8.35-3.33,1-.57,2-1.06,3.09-1.59l-1.07-1C173.71,229.54,168.48,225.42,163.41,221.12ZM107.33,24.73h13.84c0,.3-8.51.6-8.5.89L92.85,26.86C92.86,26.46,107.32,25.13,107.33,24.73ZM35.53,202.61c-4-3.56-8.32-6.82-11.17-11.51-1.08-1.79-2.38-3.28-2.37-5.75,0-1.62-1.63-3.34-2.73-4.87a73.46,73.46,0,0,1-8-15C9,160.12,8.42,154.56,8.5,148.8c.5,2.11.89,4.26,1.53,6.32a20.55,20.55,0,0,0,2.13,5.18,32.07,32.07,0,0,1,4.39,10.84c.54,2.5,2,4.8,3.09,7.18.45,1,1.06,1.93,1.43,3,1.36,3.76,4.29,6.33,6.78,9.25,2.94,3.46,5.63,7.12,8.63,10.52,1.81,2.06,4,3.8,6,5.68-.26.3,5.69,4.3,5.43,4.6C45.85,209.66,37.51,204.37,35.53,202.61Zm10.94-5.17c.23-.29-11.06-9.13-10.83-9.42,2.63,2,15.59,11.71,18.22,13.7-.14.21,5.23,3.81,5.08,4C56.23,203.83,49.18,199.35,46.47,197.44Z"/><path class="cls-2" d="M234.12,161c-.53.51-1.32.93-1.55,1.55-1.46,4.07-2.79,8.19-4.21,12.28-.11.3-.59.48-.89.71V168.3c-.64.45-1.07.59-1.23.88-2,3.62-3.73,7.34-5.82,10.87-1.32,2.23-1.55,5.69-5.38,5.59-.15,0-.34.3-.46.49-2,2.94-4,5.91-6,8.82-1.8,2.56-3.7,5-5.56,7.55l-.41-.32,11.48-19.38-.61-.34-1.95,1.66-.28-.28q3.38-6.51,6.76-13c-1.25-.67-2.21-1.42-2.08-1.8,1.17-3.49,2.49-6.94,3.86-10.36.75-1.87,2.74-3.67-.13-5.47-.21-.13-.26-.75-.18-1.09.59-2.2,1.34-4.36,1.8-6.58a14.75,14.75,0,0,0-.12-3.5c-1,.61-2.42,1-2.87,1.88-1.34,2.59-2.2,5.43-3.4,8.09-2.91,6.43-5.89,12.82-8.88,19.2a8.25,8.25,0,0,1-1.38,1.6l-.56-.38c.39-.81.71-1.67,1.18-2.44A47.85,47.85,0,0,0,212,149.59a9,9,0,0,0-.41-2.29c-.7.63-1.67,1.13-2,1.92-1.16,2.39-2,4.95-3.13,7.34-1.75,3.62-3.66,7.16-5.53,10.72-.59,1.13-1.25,2.22-1.88,3.33a37.34,37.34,0,0,1,2.52-8.05c1-2.25,2.15-4.4,3.07-6.66.22-.56-.22-1.39-.35-2.1-.58.31-1.38.48-1.7,1-.93,1.44-1.65,3-2.48,4.51-.71,1.29-1.46,2.56-2.19,3.84l-.7-.39c.35-.83.75-1.65,1.05-2.5.67-1.89,1.39-3.78,1.87-5.72.16-.64-.34-1.44-.54-2.18-.64.35-1.5.53-1.89,1.06-.89,1.2-1.54,2.57-2.32,3.86-1,1.66-2,3.38-3.14,4.93-.78,1-2.09,1.66-2.85,2.7-1.08,1.45-1.72,3.23-2.8,4.67-3.06,4-6.08,8.13-9.43,11.92a95.86,95.86,0,0,1-19.6,16.9c1.48,1,3,2,4.45,2.93,8.49,5.52,16.92,11.14,25.49,16.54,2.16,1.36,4.76,2,7.16,3,.91.37,1.81.78,2.72,1.16l.17-.15c3.09-2.81,6.57-5.3,9.16-8.51,3.41-4.23,6.79-8.43,10.6-12.35,2-2.09,4.43-4.56,4.23-8.14,0-.58.57-1.23,1-1.79a46.46,46.46,0,0,0,3.13-4.36c1-1.79,1.45-3.83,2.36-5.65.53-1.06,1.85-1.8,2.18-2.87,1.28-4.22,3.33-8.23,3.59-12.75,0-.83.62-1.62.72-2.45A7.38,7.38,0,0,0,234.12,161Zm-38.21,48.83-.43-.42,5.23-5.88.73.74Z"/></g></g></svg>